<svg id="Livello_1" data-name="Livello 1" xmlns="http://www.w3.org/2000/svg" xmlns:xlink="http://www.w3.org/1999/xlink" viewBox="0 0 570.59 234.34"><defs><style>.cls-1{fill:url(#Sfumatura_senza_nome_2);}.cls-2{fill:url(#Sfumatura_senza_nome_3);}.cls-3{fill:url(#Sfumatura_senza_nome_4);}.cls-4{fill:url(#Sfumatura_senza_nome_5);}.cls-5{fill:url(#Sfumatura_senza_nome_6);}.cls-6{fill:url(#Sfumatura_senza_nome_7);}.cls-7{fill:url(#Sfumatura_senza_nome_8);}.cls-8{fill:url(#Sfumatura_senza_nome_9);}.cls-9{fill:url(#Sfumatura_senza_nome_10);}.cls-10{fill:url(#Sfumatura_senza_nome_11);}.cls-11{fill:url(#Sfumatura_senza_nome_12);}.cls-12{fill:url(#Sfumatura_senza_nome_13);}.cls-13{fill:url(#Sfumatura_senza_nome_14);}.cls-14{fill:url(#Sfumatura_senza_nome_15);}.cls-15{fill:url(#Sfumatura_senza_nome_16);}.cls-16{fill:url(#Sfumatura_senza_nome_17);}.cls-17{fill:url(#Sfumatura_senza_nome_18);}.cls-18{fill:url(#Sfumatura_senza_nome_19);}.cls-19{fill:url(#Sfumatura_senza_nome_20);}.cls-20{fill:url(#Sfumatura_senza_nome_21);}.cls-21{fill:url(#Sfumatura_senza_nome_22);}.cls-22{fill:url(#Sfumatura_senza_nome_23);}.cls-23{fill:url(#Sfumatura_senza_nome_24);}.cls-24{fill:url(#Sfumatura_senza_nome_25);}.cls-25,.cls-26,.cls-27,.cls-28,.cls-29,.cls-30{stroke:#fff;stroke-linejoin:round;}.cls-25{fill:url(#Sfumatura_senza_nome_26);}.cls-26{fill:url(#Sfumatura_senza_nome_27);}.cls-27{fill:url(#Sfumatura_senza_nome_28);}.cls-28{fill:url(#Sfumatura_senza_nome_29);}.cls-29{fill:url(#Sfumatura_senza_nome_30);}.cls-30{fill:url(#Sfumatura_senza_nome_31);}.cls-31,.cls-32,.cls-33,.cls-34,.cls-35,.cls-36{fill:none;}.cls-31{stroke:url(#Sfumatura_senza_nome_32);}.cls-32{stroke:url(#Sfumatura_senza_nome_33);}.cls-33{stroke:url(#Sfumatura_senza_nome_34);}.cls-34{stroke:url(#Sfumatura_senza_nome_35);}.cls-35{stroke:url(#Sfumatura_senza_nome_36);}.cls-36{stroke:url(#Sfumatura_senza_nome_37);}.cls-37,.cls-38{isolation:isolate;}.cls-38{font-size:10px;fill:#b0b0b3;font-family:Arial-BoldMT, Arial;font-weight:700;}.cls-39{letter-spacing:-0.04em;}</style><radialGradient id="Sfumatura_senza_nome_2" cx="2.45" cy="618.1" r="0.7" gradientTransform="matrix(37.04, 0, 0, -88.66, 237.92, 54914.21)" gradientUnits="userSpaceOnUse"><stop offset="0" stop-color="#379b19"/><stop offset="1" stop-color="#004f00"/></radialGradient><radialGradient id="Sfumatura_senza_nome_3" cx="2.48" cy="614.13" r="0.7" gradientTransform="matrix(114.11, 0, 0, -34.21, -37.33, 21188.19)" gradientUnits="userSpaceOnUse"><stop offset="0" stop-color="#e67d3c"/><stop offset="1" stop-color="#9a3100"/></radialGradient><radialGradient id="Sfumatura_senza_nome_4" cx="-79.32" cy="618.21" r="0.7" gradientTransform="matrix(0.02, 0, 0, -92.81, 311.93, 57482.55)" xlink:href="#Sfumatura_senza_nome_2"/><radialGradient id="Sfumatura_senza_nome_5" cx="2.47" cy="617.7" r="0.7" gradientTransform="matrix(70.58, 0, 0, -76.58, 172.84, 47423.49)" gradientUnits="userSpaceOnUse"><stop offset="0" stop-color="#d43d02"/><stop offset="1" stop-color="#800"/></radialGradient><radialGradient id="Sfumatura_senza_nome_6" cx="2.45" cy="602.32" r="0.7" gradientTransform="matrix(37.06, 0, 0, -12.1, 237.85, 7370.78)" xlink:href="#Sfumatura_senza_nome_2"/><radialGradient id="Sfumatura_senza_nome_7" cx="0" cy="592.81" r="0.36" gradientTransform="matrix(1, 0, 0, -7.95, 310, 4883.15)" xlink:href="#Sfumatura_senza_nome_2"/><radialGradient id="Sfumatura_senza_nome_8" cx="2.45" cy="618.1" r="0.7" gradientTransform="matrix(37.04, 0, 0, -88.66, 239.92, 54915.05)" xlink:href="#Sfumatura_senza_nome_5"/><radialGradient id="Sfumatura_senza_nome_9" cx="2.48" cy="614.12" r="0.7" gradientTransform="matrix(114.13, 0, 0, -34.16, 88.74, 21132.79)" gradientUnits="userSpaceOnUse"><stop offset="0" stop-color="#c4c600"/><stop offset="1" stop-color="#787a00"/></radialGradient><radialGradient id="Sfumatura_senza_nome_10" cx="2.44" cy="609.56" r="0.7" gradientTransform="matrix(33.54, 0, 0, -20.04, 283.96, 12307.08)" xlink:href="#Sfumatura_senza_nome_5"/><radialGradient id="Sfumatura_senza_nome_11" cx="0" cy="592.81" r="0.36" gradientTransform="matrix(1, 0, 0, -7.95, 312, 4884.15)" xlink:href="#Sfumatura_senza_nome_5"/><radialGradient id="Sfumatura_senza_nome_12" cx="2.47" cy="617.7" r="0.7" gradientTransform="matrix(70.58, 0, 0, -76.58, 175.84, 47425.18)" xlink:href="#Sfumatura_senza_nome_9"/><radialGradient id="Sfumatura_senza_nome_13" cx="2.47" cy="617.7" r="0.7" gradientTransform="matrix(70.58, 0, 0, -76.58, 176.84, 47499.49)" gradientUnits="userSpaceOnUse"><stop offset="0" stop-color="#0bb2cc"/><stop offset="1" stop-color="#006680"/></radialGradient><radialGradient id="Sfumatura_senza_nome_14" cx="2.45" cy="616.2" r="0.7" gradientTransform="matrix(43.55, 0, 0, -50.37, 300.48, 31152.32)" xlink:href="#Sfumatura_senza_nome_9"/><radialGradient id="Sfumatura_senza_nome_15" cx="0" cy="592.81" r="0.36" gradientTransform="matrix(1, 0, 0, -7.95, 315, 4886.15)" xlink:href="#Sfumatura_senza_nome_9"/><radialGradient id="Sfumatura_senza_nome_16" cx="-39.27" cy="618.21" r="0.7" gradientTransform="matrix(0.05, 0, 0, -92.81, 304.86, 57485.54)" xlink:href="#Sfumatura_senza_nome_3"/><radialGradient id="Sfumatura_senza_nome_17" cx="2.47" cy="617.7" r="0.7" gradientTransform="matrix(70.58, 0, 0, -76.58, 167.84, 47504.8)" gradientUnits="userSpaceOnUse"><stop offset="0" stop-color="#4bcc59"/><stop offset="1" stop-color="#00800d"/></radialGradient><radialGradient id="Sfumatura_senza_nome_18" cx="2.48" cy="618.73" r="0.7" gradientTransform="matrix(119.95, 0, 0, -119.06, -54.9, 73787.59)" xlink:href="#Sfumatura_senza_nome_3"/><radialGradient id="Sfumatura_senza_nome_19" cx="0" cy="592.81" r="0.36" gradientTransform="matrix(1, 0, 0, -7.95, 303, 4886.15)" xlink:href="#Sfumatura_senza_nome_3"/><radialGradient id="Sfumatura_senza_nome_20" cx="2.48" cy="614.12" r="0.7" gradientTransform="matrix(114.13, 0, 0, -34.16, 89.73, 21138.3)" xlink:href="#Sfumatura_senza_nome_13"/><radialGradient id="Sfumatura_senza_nome_21" cx="2.48" cy="614.13" r="0.7" gradientTransform="matrix(114.11, 0, 0, -34.21, -33.33, 21199.69)" xlink:href="#Sfumatura_senza_nome_17"/><radialGradient id="Sfumatura_senza_nome_22" cx="2.46" cy="617.7" r="0.7" gradientTransform="matrix(49.42, 0, 0, -76.58, 289.74, 47499.49)" xlink:href="#Sfumatura_senza_nome_13"/><radialGradient id="Sfumatura_senza_nome_23" cx="0" cy="592.81" r="0.36" gradientTransform="matrix(1, 0, 0, -7.95, 316, 4892.15)" xlink:href="#Sfumatura_senza_nome_13"/><radialGradient id="Sfumatura_senza_nome_24" cx="2.49" cy="617.27" r="0.7" gradientTransform="matrix(184.69, 0, 0, -66.57, -174.49, 41319.34)" xlink:href="#Sfumatura_senza_nome_17"/><radialGradient id="Sfumatura_senza_nome_25" cx="0" cy="592.81" r="0.36" gradientTransform="matrix(1, 0, 0, -7.95, 307, 4897.15)" xlink:href="#Sfumatura_senza_nome_17"/><radialGradient id="Sfumatura_senza_nome_26" cx="299" cy="285.89" r="168" gradientTransform="matrix(1, 0, 0, -1, 11, 402.89)" gradientUnits="userSpaceOnUse"><stop offset="0" stop-color="#50b432"/><stop offset="1" stop-color="#046800"/></radialGradient><radialGradient id="Sfumatura_senza_nome_27" cx="299" cy="285.89" r="168" gradientTransform="matrix(1, 0, 0, -1, 13, 403.89)" gradientUnits="userSpaceOnUse"><stop offset="0" stop-color="#ed561b"/><stop offset="1" stop-color="#a10a00"/></radialGradient><radialGradient id="Sfumatura_senza_nome_28" cx="299" cy="285.89" r="168" gradientTransform="matrix(1, 0, 0, -1, 16, 405.89)" gradientUnits="userSpaceOnUse"><stop offset="0" stop-color="#dddf00"/><stop offset="1" stop-color="#919300"/></radialGradient><radialGradient id="Sfumatura_senza_nome_29" cx="299" cy="285.89" r="168" gradientTransform="matrix(1, 0, 0, -1, 17, 411.89)" gradientUnits="userSpaceOnUse"><stop offset="0" stop-color="#24cbe5"/><stop offset="1" stop-color="#007f99"/></radialGradient><radialGradient id="Sfumatura_senza_nome_30" cx="299" cy="285.89" r="168" gradientTransform="matrix(1, 0, 0, -1, 8, 416.89)" gradientUnits="userSpaceOnUse"><stop offset="0" stop-color="#64e572"/><stop offset="1" stop-color="#189926"/></radialGradient><radialGradient id="Sfumatura_senza_nome_31" cx="299" cy="285.89" r="168" gradientTransform="matrix(1, 0, 0, -1, 4, 405.89)" gradientUnits="userSpaceOnUse"><stop offset="0" stop-color="#ff9655"/><stop offset="1" stop-color="#b34a09"/></radialGradient><radialGradient id="Sfumatura_senza_nome_32" cx="2.48" cy="613.13" r="0.7" gradientTransform="matrix(84.37, 0, 0, -29.63, 161.03, 18234.93)" xlink:href="#Sfumatura_senza_nome_26"/><radialGradient id="Sfumatura_senza_nome_33" cx="2.47" cy="605.47" r="0.7" gradientTransform="matrix(72.71, 0, 0, -14.61, 220.05, 8933.5)" xlink:href="#Sfumatura_senza_nome_27"/><radialGradient id="Sfumatura_senza_nome_34" cx="2.45" cy="606.88" r="0.7" gradientTransform="matrix(42.62, 0, 0, -16.12, 322.85, 9891.08)" xlink:href="#Sfumatura_senza_nome_28"/><radialGradient id="Sfumatura_senza_nome_35" cx="2.45" cy="596.75" r="0.7" gradientTransform="matrix(36.61, 0, 0, -9.27, 351.9, 5733.19)" xlink:href="#Sfumatura_senza_nome_29"/><radialGradient id="Sfumatura_senza_nome_36" cx="2.47" cy="612.84" r="0.7" gradientTransform="matrix(70.73, 0, 0, -28.53, 61.74, 17746.73)" xlink:href="#Sfumatura_senza_nome_30"/><radialGradient id="Sfumatura_senza_nome_37" cx="2.45" cy="608.06" r="0.7" gradientTransform="matrix(41.86, 0, 0, -17.63, 88.33, 10831.98)" xlink:href="#Sfumatura_senza_nome_31"/></defs><path class="cls-1" d="M347,84.29v8L310,173V165Z" transform="translate(-15 -55.42)"/><path class="cls-2" d="M188.89,194.26v8L303,176V168Z" transform="translate(-15 -55.42)"/><path class="cls-3" d="M310,80.15V88.1L310,173V165Z" transform="translate(-15 -55.42)"/><path class="cls-4" d="M382.58,97.38v8L312,174V166Z" transform="translate(-15 -55.42)"/><path class="cls-5" d="M310,80.15A158,158,0,0,1,347,84.29v8A157.51,157.51,0,0,0,310,88.1Z" transform="translate(-15 -55.42)"/><path class="cls-6" d="M310,165h0V173h0Z" transform="translate(-15 -55.42)"/><path class="cls-7" d="M349,85.29v8L312,174V166Z" transform="translate(-15 -55.42)"/><path class="cls-8" d="M429.13,141.79v8L315,176V168Z" transform="translate(-15 -55.42)"/><path class="cls-9" d="M349,85.29a136.55,136.55,0,0,1,33.54,12.09v8A136.54,136.54,0,0,0,349,93.25Z" transform="translate(-15 -55.42)"/><path class="cls-10" d="M312,166h0V174h0Z" transform="translate(-15 -55.42)"/><path class="cls-11" d="M385.58,99.38v8L315,176V168Z" transform="translate(-15 -55.42)"/><path class="cls-12" d="M386.58,242.62v8L316,182V174Z" transform="translate(-15 -55.42)"/><path class="cls-13" d="M385.58,99.38C407,110.4,421,124,429.13,141.79v8c-8.18-17.82-22.12-31.4-43.55-42.42Z" transform="translate(-15 -55.42)"/><path class="cls-14" d="M315,168h0V176h0Z" transform="translate(-15 -55.42)"/><path class="cls-15" d="M303,83.15V91.1L303,176V168Z" transform="translate(-15 -55.42)"/><path class="cls-16" d="M377.58,247.62v8L307,187V179Z" transform="translate(-15 -55.42)"/><path class="cls-17" d="M188.89,194.26A59.49,59.49,0,0,1,183,168V176c0-46.85,53.69-84.83,120-84.85V83.15C236.69,83.17,183,121.15,183,168V176a59.46,59.46,0,0,0,5.89,26.26Z" transform="translate(-15 -55.42)"/><path class="cls-18" d="M303,168h0V176h0Z" transform="translate(-15 -55.42)"/><path class="cls-19" d="M430.13,147.79v8L316,182V174Z" transform="translate(-15 -55.42)"/><path class="cls-20" d="M192.89,205.26v8L307,187V179Z" transform="translate(-15 -55.42)"/><path class="cls-21" d="M436,174c0,28.1-17.28,52.09-49.42,68.62v8C418.72,234.05,436,210.06,436,182Z" transform="translate(-15 -55.42)"/><path class="cls-22" d="M316,174h0V182h0Z" transform="translate(-15 -55.42)"/><path class="cls-23" d="M377.58,247.62C324,275.19,248.93,266.81,210,228.91a75.66,75.66,0,0,1-17.06-23.65v8c20.51,44.56,88.22,68.93,151.24,54.43a136.65,136.65,0,0,0,33.45-12.06Z" transform="translate(-15 -55.42)"/><path class="cls-24" d="M307,179h0V187h0Z" transform="translate(-15 -55.42)"/><path class="cls-25" d="M310,80.15A158,158,0,0,1,347,84.29L310,165h0Z" transform="translate(-15 -55.42)"/><path class="cls-26" d="M349,85.29a136.55,136.55,0,0,1,33.54,12.09L312,166h0Z" transform="translate(-15 -55.42)"/><path class="cls-27" d="M385.58,99.38C407,110.4,421,124,429.13,141.79L315,168h0Z" transform="translate(-15 -55.42)"/><path class="cls-28" d="M430.13,147.79c16.37,35.64-.69,72.79-43.55,94.83L316,174h0Z" transform="translate(-15 -55.42)"/><path class="cls-29" d="M377.58,247.62C324,275.19,248.93,266.81,210,228.91a75.66,75.66,0,0,1-17.06-23.65L307,179h0Z" transform="translate(-15 -55.42)"/><path class="cls-30" d="M188.89,194.26c-20.51-44.57,14-92.45,77-106.95A157.63,157.63,0,0,1,303,83.15L303,168h0Z" transform="translate(-15 -55.42)"/><path class="cls-31" d="M412.14,58.56c-5,0-80.93,7.9-82.65,18.77l-1.72,10.86" transform="translate(-15 -55.42)"/><path class="cls-32" d="M436.19,85c-5,0-62.72-8.21-67.72,1.59l-5,9.8" transform="translate(-15 -55.42)"/><path class="cls-33" d="M448.7,106c-5,0-24.82,3.18-33.72,9.65l-8.9,6.47" transform="translate(-15 -55.42)"/><path class="cls-34" d="M459.74,207.5c-5,0-15.69-2.48-26.15-5.87l-10.46-3.4" transform="translate(-15 -55.42)"/><path class="cls-35" d="M201.19,281.23c5,0,63.93-7.61,67.33-18.07l3.4-10.47" transform="translate(-15 -55.42)"/><path class="cls-36" d="M170.06,104.48c5,0,24.06,4.7,33,11.17l8.9,6.46" transform="translate(-15 -55.42)"/><g class="cls-37"><text class="cls-38" transform="translate(407 8.58)">Dev <tspan class="cls-39" x="21.12" y="0">W</tspan><tspan x="30.19" y="0">allet: 5.0%</tspan></text></g><g class="cls-37"><text class="cls-38" transform="translate(431 34.58)">Manual Burn: 5.0%</text></g><g class="cls-37"><text class="cls-38" transform="translate(444 55.58)">Marketing: 10.0%</text></g><g class="cls-37"><text class="cls-38" transform="translate(455 156.58)">Future Exchange: 20.0%</text></g><g class="cls-37"><text class="cls-38" transform="translate(69 230.58)">Game Rewards: 30.0%</text></g><g class="cls-37"><text class="cls-38" transform="translate(0 53.58)">Private/Presale/Airdrop: 30.0%</text></g></svg>